USFL
nRows=131
nColumns=2
inDegrees=yes
endheader
time	med_gas_r	
2.57661	 59.836128	
2.64819	 59.831206	
2.71976	 59.849634	
2.79133	 59.786455	
2.8629	 59.749694	
2.93448	 59.804891	
3.00605	 59.736828	
3.07762	 59.668060	
3.14919	 59.660150	
3.22077	 59.626545	
3.29234	 59.576561	
3.36391	 59.508117	
3.43548	 59.484372	
3.50706	 59.472076	
3.57863	 59.525106	
3.6502	 59.527426	
3.72177	 59.481584	
3.79335	 59.543613	
3.86492	 59.528423	
3.93649	 59.526208	
4.00806	 59.451910	
4.07964	 59.333397	
4.15121	 59.255973	
4.22278	 59.299181	
4.29435	 59.331822	
4.36593	 59.273555	
4.4375	 59.332820	
4.50907	 59.295929	
4.58065	 59.173488	
4.65222	 59.251777	
4.72379	 59.267331	
4.79536	 59.152090	
4.86694	 59.227453	
4.93851	 59.169518	
5.01008	 59.019718	
5.08165	 59.112766	
5.15323	 58.992930	
5.2248	 58.747770	
5.29637	 58.919330	
5.36794	 58.996292	
5.43952	 58.815737	
5.51109	 59.224300	
5.58266	 60.475107	
5.65423	 59.974813	
5.72581	 57.586842	
5.79738	 57.810393	
5.86895	 56.373323	
5.94052	 55.090454	
6.0121	 53.263618	
6.08367	 50.269387	
6.15524	 50.909865	
6.22681	 47.077106	
6.29839	 45.515958	
6.36996	 43.686214	
6.44153	 44.319424	
6.5131	 43.004681	
6.58468	 44.232430	
6.65625	 43.374157	
6.72782	 43.245956	
6.7994	 42.924617	
6.87097	 42.456428	
6.94254	 42.470070	
7.01411	 42.081076	
7.08569	 41.735268	
7.15726	 41.722994	
7.22883	 41.699039	
7.3004	 41.502891	
7.37198	 41.527143	
7.44355	 41.406890	
7.51512	 41.465819	
7.58669	 41.361452	
7.65827	 41.240167	
7.72984	 40.972508	
7.80141	 41.091988	
7.87298	 41.114382	
7.94456	 41.049409	
8.01613	 41.092405	
8.0877	 40.993899	
8.15927	 40.768444	
8.23085	 40.677912	
8.30242	 40.714281	
8.37399	 40.589514	
8.44556	 40.487780	
8.51714	 40.616102	
8.58871	 40.662976	
8.66028	 40.655060	
8.73185	 40.722479	
8.80343	 40.598316	
8.875	 40.519889	
8.94657	 40.522327	
9.01815	 40.425505	
9.08972	 40.369740	
9.16129	 40.414396	
9.23286	 40.438427	
9.30444	 40.434216	
9.37601	 40.469980	
9.44758	 40.391591	
9.51915	 40.280760	
9.59073	 40.321908	
9.6623	 40.404425	
9.73387	 40.273921	
9.80544	 40.336109	
9.87702	 40.227960	
9.94859	 40.170250	
10.0202	 40.179687	
10.0917	 40.212844	
10.1633	 40.219449	
10.2349	 40.217242	
10.3065	 40.165305	
10.378	 40.208838	
10.4496	 40.242853	
10.5212	 40.272715	
10.5927	 40.245095	
10.6643	 40.317996	
10.7359	 40.467781	
10.8075	 40.519528	
10.879	 40.600417	
10.9506	 40.433468	
11.0222	 42.918841	
11.0937	 43.941041	
11.1653	 43.036597	
11.2369	 48.134096	
11.3085	 48.102485	
11.38	 49.371384	
11.4516	 49.617177	
11.5232	 49.523655	
11.5948	 49.852905	
11.6663	 50.468265	
11.7379	 50.440333	
11.8095	 50.830328	
11.881	 51.280265	
